<svg width="87" height="72" viewBox="0 0 87 72" fill="none" xmlns="http://www.w3.org/2000/svg">
<path d="M16.2157 1.60134C-5.4708 13.8546 25.1731 60.5318 44.5023 60.5318C63.8315 60.5318 93.5325 7.72634 68.0745 1.60134C54.4421 -1.67852 44.5022 16.6842 42.1451 16.684C39.7879 16.6839 29.9112 -6.13685 16.2157 1.60134Z" fill="#E8D7EA"/>
<path d="M7.98918 31.1904C7.83794 29.7515 8.88183 28.4624 10.3208 28.3111L22.827 26.9967C24.2659 26.8454 25.555 27.8893 25.7063 29.3283L28.0613 51.7352C28.2126 53.1742 27.1687 54.4633 25.7297 54.6145L13.2235 55.929C11.7846 56.0802 10.4955 55.0363 10.3442 53.5973L7.98918 31.1904Z" fill="#C8D357"/>
<path fill-rule="evenodd" clip-rule="evenodd" d="M15.6923 38.3308C16.3591 38.2238 17.2179 38.2479 17.6618 38.9882C18.0084 39.5662 18.0562 40.1751 17.864 40.7437C17.6798 41.2883 17.2905 41.7556 16.8307 42.1339C16.5809 42.3394 16.299 42.5281 15.9951 42.6968C16.3485 42.7601 16.7215 42.8774 17.0388 43.1313C17.4201 43.4365 17.6457 43.8762 17.7391 44.4366C17.8419 45.0538 17.6055 45.579 17.2523 45.9772C16.9835 46.2803 16.6343 46.5278 16.2666 46.7267C16.3898 46.7925 16.5076 46.8684 16.6161 46.9562C16.9729 47.2452 17.2233 47.6624 17.2233 48.203C17.2233 48.8171 16.8487 49.2912 16.4312 49.6305C16.0064 49.9758 15.4423 50.2622 14.8442 50.501C13.6421 50.981 12.1558 51.3258 10.9674 51.5427C10.6821 51.5948 10.4121 51.6398 10.165 51.6778C10.0031 51.7027 9.83803 51.6604 9.70814 51.5605C9.57826 51.4607 9.49483 51.3121 9.47723 51.1493L8.4293 41.4534C8.39399 41.1267 8.62807 40.8324 8.95434 40.7932C9.40642 40.739 10.0564 40.5103 10.8511 40.177C11.2352 40.016 11.6368 39.8377 12.0492 39.6547L12.0628 39.6487C12.4777 39.4645 12.903 39.2759 13.3197 39.1013C14.1412 38.7572 14.9801 38.4451 15.6923 38.3308ZM13.8132 46.2672C13.5699 46.2688 13.3491 46.2801 13.1677 46.2952C12.856 46.3212 12.6165 46.5822 12.6175 46.895C12.6185 47.2078 12.8596 47.4674 13.1715 47.4913C13.3763 47.5071 13.6207 47.4983 13.8879 47.467C14.3008 47.4678 14.7679 47.5014 15.1745 47.5981C15.4928 47.6738 15.7222 47.7765 15.8609 47.8888C15.9789 47.9843 16.0233 48.0758 16.0233 48.203C16.0233 48.2912 15.9708 48.4584 15.6744 48.6993C15.3853 48.9343 14.9486 49.1671 14.3992 49.3866C13.3063 49.823 11.9108 50.1507 10.752 50.3622C10.7015 50.3714 10.6515 50.3804 10.6021 50.3892L9.68123 41.8693C10.1908 41.736 10.755 41.5186 11.3152 41.2836C11.7108 41.1178 12.122 40.9353 12.5302 40.7541L12.5496 40.7455C12.9664 40.5605 13.3802 40.377 13.7834 40.2081C14.6015 39.8654 15.3246 39.6052 15.8825 39.5156C16.4857 39.4188 16.605 39.5592 16.6326 39.6053C16.7967 39.8789 16.8076 40.1215 16.7272 40.3592C16.6387 40.6209 16.4238 40.9147 16.0683 41.2072C15.3553 41.7938 14.232 42.2461 13.1521 42.3644C12.867 42.3957 12.6439 42.6244 12.6197 42.9102C12.5954 43.196 12.7769 43.459 13.0527 43.5378C13.5706 43.6857 14.075 43.7401 14.52 43.772C14.6707 43.7828 14.8092 43.7909 14.9388 43.7984C15.2135 43.8145 15.4478 43.8282 15.6723 43.8602C15.9911 43.9056 16.1742 43.9764 16.289 44.0683C16.3863 44.1461 16.4981 44.2899 16.5554 44.6339C16.5835 44.8027 16.5361 44.9762 16.3545 45.181C16.1629 45.3971 15.8512 45.6083 15.4545 45.7918C14.904 46.0464 14.2885 46.2038 13.8132 46.2672Z" fill="#2A1410"/>
<path fill-rule="evenodd" clip-rule="evenodd" d="M22.7891 49.0332C22.9854 49.3001 22.9282 49.6757 22.6612 49.872L7.57307 60.9688L7.20905 60.6059L7.20266 60.5996L7.17646 60.5744C7.15244 60.5515 7.1156 60.517 7.06716 60.4732C6.97015 60.3855 6.82738 60.2614 6.64865 60.1199C6.28842 59.8348 5.79523 59.4897 5.24576 59.2272C4.69152 58.9623 4.12156 58.8014 3.59364 58.8327C3.21829 58.8549 2.84105 58.9748 2.47981 59.265C2.65383 59.4613 2.88567 59.7201 3.16645 60.0277C3.8325 60.7574 4.77283 61.7603 5.86939 62.8524C7.97688 64.9514 10.6226 67.3406 12.9932 68.7735L31.7331 55.6211C32.0043 55.4308 32.3785 55.4963 32.5689 55.7676C32.7593 56.0388 32.6937 56.413 32.4225 56.6034L13.3664 69.9776C13.176 70.1112 12.9255 70.1228 12.7236 70.0072C10.1252 68.5193 7.23713 65.9083 5.02258 63.7027C3.90946 62.594 2.95573 61.5769 2.28015 60.8367C1.94225 60.4665 1.67364 60.1653 1.48915 59.9563C1.39689 59.8517 1.32565 59.7702 1.27727 59.7146L1.22208 59.6509L1.20777 59.6343L1.203 59.6288C1.20291 59.6287 1.20256 59.6282 1.65788 59.2375L1.203 59.6288C1.01167 59.4058 1.00948 59.0766 1.19844 58.8516C1.87753 58.0431 2.6908 57.684 3.52277 57.6348C4.3299 57.587 5.11028 57.8324 5.76315 58.1444C6.42079 58.4587 6.99148 58.8609 7.39336 59.179C7.49672 59.2608 7.58977 59.3377 7.67119 59.407L21.9502 48.9053C22.2172 48.709 22.5927 48.7662 22.7891 49.0332Z" fill="#2A1410"/>
<path fill-rule="evenodd" clip-rule="evenodd" d="M31.0207 30.2654C32.826 30.4886 34.8455 31.0395 35.7167 31.4029C40.6527 33.4614 42.8424 37.3805 44.2773 40.8381C44.5772 41.5609 44.8467 42.2698 45.0996 42.9352C45.1483 43.0635 45.1965 43.1902 45.2441 43.3151C45.5411 44.0936 45.8173 44.7986 46.1064 45.414C46.6994 46.6763 47.2737 47.3922 47.9885 47.6303C51.5298 48.8099 54.7836 46.3922 56.7615 43.8983C56.9674 43.6387 57.3448 43.5952 57.6045 43.8011C57.8641 44.007 57.9076 44.3844 57.7017 44.644C55.6626 47.2151 51.9245 50.2062 47.6093 48.7688C46.3828 48.3602 45.6263 47.2141 45.0202 45.9242C44.7098 45.2635 44.4194 44.5199 44.1229 43.7428C44.0743 43.6153 44.0255 43.4868 43.9763 43.3575C43.7234 42.6921 43.4613 42.0026 43.169 41.2981C41.7758 37.941 39.7502 34.3852 35.2548 32.5104C34.5023 32.1966 32.592 31.6688 30.8735 31.4563C30.0095 31.3495 29.2548 31.3308 28.7392 31.4299C28.4803 31.4796 28.3389 31.5488 28.2734 31.6015C28.2326 31.6343 28.2264 31.6504 28.2264 31.6945C28.2264 31.7188 28.2371 31.8042 28.3849 31.9575C28.5322 32.1103 28.769 32.28 29.0982 32.4574C29.7542 32.8107 30.6557 33.1307 31.5925 33.4016C32.5221 33.6705 33.4556 33.8824 34.159 34.0274C34.5101 34.0997 34.8024 34.1551 35.0064 34.1923C35.1083 34.2109 35.1881 34.2249 35.2421 34.2342L35.3032 34.2447L35.3183 34.2472L35.3218 34.2478C35.6361 34.2995 35.856 34.5879 35.8218 34.9045C35.7875 35.2211 35.5119 35.4558 35.1938 35.4391L35.2253 34.84C35.1279 35.432 35.1278 35.432 35.1276 35.432L35.1212 35.4309L35.1037 35.428L35.0377 35.4167C34.9804 35.4068 34.8969 35.3921 34.7911 35.3728C34.5795 35.3342 34.2782 35.2771 33.9168 35.2027C33.2006 35.0551 32.243 34.8381 31.2798 34.5604C31.2729 34.5584 31.266 34.5564 31.2591 34.5544C30.2962 34.2759 29.298 33.928 28.5292 33.5139C28.146 33.3075 27.7892 33.0686 27.5209 32.7903C27.2531 32.5124 27.0264 32.1441 27.0264 31.6945C27.0264 31.2648 27.215 30.9126 27.5216 30.6662C27.8034 30.4397 28.1618 30.3189 28.5128 30.2514C29.2172 30.1161 30.1229 30.1544 31.0207 30.2654ZM32.0183 37.8744C31.5067 37.7613 30.9869 37.6105 30.5751 37.3988C30.1734 37.1924 29.6476 36.8069 29.6477 36.1498C29.6477 35.3713 30.2764 34.9464 30.7926 34.7291C30.9454 34.6648 31.1092 34.6089 31.2798 34.5604M32.0183 37.8744C31.9865 37.8848 31.9548 37.8952 31.9233 37.9057C31.3708 38.0899 30.8127 38.3136 30.3992 38.5811C30.1937 38.7141 29.9846 38.8825 29.8369 39.0965C29.6794 39.3247 29.58 39.6265 29.6641 39.9631C29.7731 40.3992 30.1418 40.5849 30.3939 40.6623C30.6546 40.7424 30.9629 40.7653 31.2569 40.7696C31.6469 40.7753 32.1287 40.7465 32.6123 40.7177C32.851 40.7034 33.0902 40.6892 33.319 40.679C34.0545 40.6463 34.7259 40.6517 35.2313 40.7702C35.7364 40.8886 35.9027 41.0719 35.953 41.273C36.0174 41.5307 36.0985 41.895 36.1972 42.3385C36.4808 43.6128 36.9097 45.5403 37.5061 47.4654C37.9107 48.7712 38.3999 50.1047 38.9885 51.2745C39.5728 52.4357 40.2783 53.483 41.1365 54.1696C43.2783 55.883 46.0902 56.2088 48.6784 55.8001C51.2653 55.3917 53.7362 54.235 55.276 52.8352C55.5212 52.6123 55.5392 52.2328 55.3163 51.9876C55.0934 51.7424 54.714 51.7243 54.4688 51.9472C53.1267 53.1672 50.882 54.2374 48.4912 54.6148C46.1018 54.9921 43.6741 54.6629 41.8862 53.2326C41.2238 52.7027 40.6124 51.8321 40.0605 50.7351C39.5128 49.6467 39.0463 48.3819 38.6524 47.1103C38.0725 45.2385 37.6665 43.4138 37.3828 42.1392C37.2786 41.6709 37.1909 41.2769 37.1172 40.982C36.9055 40.1351 36.1875 39.7618 35.5052 39.6018C34.8232 39.442 34.0043 39.4474 33.2658 39.4802C32.9875 39.4925 32.7233 39.5084 32.4741 39.5234C32.0233 39.5506 31.6217 39.5748 31.2744 39.5697C31.2071 39.5687 31.1461 39.5666 31.0909 39.5635C31.3741 39.3889 31.7985 39.2122 32.3027 39.0442C33.1202 38.7717 34.0256 38.5596 34.65 38.4133C34.8288 38.3714 34.9846 38.3349 35.1087 38.3039C35.3829 38.2354 35.5722 37.9848 35.563 37.7023C35.5539 37.4198 35.3488 37.182 35.0707 37.1314C34.8851 37.0977 34.6034 37.0621 34.2882 37.0222C34.1626 37.0063 34.0317 36.9897 33.8994 36.9723C33.4163 36.9088 32.8756 36.8301 32.3698 36.7227C31.855 36.6135 31.4184 36.483 31.1236 36.3315C30.9259 36.2299 30.8658 36.1597 30.8495 36.1345C30.8589 36.094 30.9157 35.9793 31.2583 35.835C31.6427 35.6732 32.1948 35.5658 32.7993 35.5022C33.3932 35.4396 33.9928 35.4236 34.4475 35.4236C34.6739 35.4236 34.8623 35.4276 34.9933 35.4315C35.0588 35.4335 35.1099 35.4354 35.1441 35.4369L35.1825 35.4386L35.1916 35.439L35.1938 35.4391" fill="#2A1410"/>
<path fill-rule="evenodd" clip-rule="evenodd" d="M56.217 32.3741C56.5358 32.4646 56.7208 32.7964 56.6302 33.1152C55.9671 35.4496 54.9514 37.3971 53.5186 38.606C52.0511 39.8441 50.2019 40.2586 48.0405 39.6127C47.723 39.5178 47.5425 39.1835 47.6374 38.866C47.7323 38.5485 48.0666 38.368 48.3841 38.4629C50.1815 39.0001 51.6052 38.6503 52.7448 37.6888C53.9189 36.6982 54.8442 35.0109 55.4759 32.7873C55.5664 32.4685 55.8983 32.2835 56.217 32.3741Z" fill="#2A1410"/>
<path d="M46.2112 32.0012C46.5433 33.2407 46.1426 34.4251 45.3163 34.6465C44.4899 34.868 43.5507 34.0426 43.2186 32.803C42.8864 31.5635 43.2871 30.3791 44.1135 30.1577C44.9399 29.9362 45.879 30.7616 46.2112 32.0012Z" fill="#2A1410"/>
<path d="M52.4329 30.0808C52.5671 31.3571 51.9861 32.4642 51.1352 32.5536C50.2844 32.643 49.4859 31.6809 49.3518 30.4046C49.2176 29.1284 49.7986 28.0213 50.6495 27.9318C51.5003 27.8424 52.2988 28.8045 52.4329 30.0808Z" fill="#2A1410"/>
<path d="M22.9109 31.9615C22.9109 32.8297 22.2071 33.5334 21.339 33.5334C20.4708 33.5334 19.7671 32.8297 19.7671 31.9615C19.7671 31.0934 20.4708 30.3896 21.339 30.3896C22.2071 30.3896 22.9109 31.0934 22.9109 31.9615Z" fill="#2A1410"/>
<path d="M19.7668 34.5807C19.7668 35.4488 19.0631 36.1526 18.1949 36.1526C17.3268 36.1526 16.623 35.4488 16.623 34.5807C16.623 33.7125 17.3268 33.0088 18.1949 33.0088C19.0631 33.0088 19.7668 33.7125 19.7668 34.5807Z" fill="#2A1410"/>
<path d="M23.4343 36.1529C23.4343 37.0211 22.7305 37.7248 21.8624 37.7248C20.9943 37.7248 20.2905 37.0211 20.2905 36.1529C20.2905 35.2848 20.9943 34.5811 21.8624 34.5811C22.7305 34.5811 23.4343 35.2848 23.4343 36.1529Z" fill="#2A1410"/>
<path fill-rule="evenodd" clip-rule="evenodd" d="M64.4314 48.3232C64.2258 48.5831 64.2699 48.9605 64.5299 49.166L79.2215 60.7826L79.598 60.4326L79.6046 60.4265L79.6317 60.4022C79.6565 60.3802 79.6945 60.347 79.7444 60.3049C79.8445 60.2207 79.9915 60.1016 80.175 59.9665C80.545 59.6941 81.0499 59.3665 81.6082 59.1232C82.1714 58.8779 82.7466 58.737 83.2731 58.7866C83.6474 58.8219 84.0203 58.9549 84.3712 59.2576C84.1904 59.4477 83.9497 59.6983 83.6583 59.9959C82.9672 60.7019 81.9925 61.6713 80.8584 62.7245C78.6748 64.7526 75.941 67.0528 73.5184 68.4011L56.6265 56.6304C56.3547 56.4409 55.9807 56.5077 55.7912 56.7796C55.6018 57.0515 55.6686 57.4255 55.9405 57.6149L73.1359 69.5972C73.32 69.7255 73.5602 69.7403 73.7587 69.6357C76.4075 68.2394 79.3849 65.7308 81.6751 63.6038C82.8262 62.5347 83.8149 61.5514 84.5159 60.8353C84.8665 60.4771 85.1454 60.1855 85.3371 59.983C85.4329 59.8817 85.507 59.8027 85.5573 59.7488L85.6147 59.6871L85.6295 59.6711L85.6345 59.6657C85.6346 59.6656 85.635 59.6652 85.1936 59.2588L85.6345 59.6657C85.8335 59.4495 85.8472 59.1206 85.6662 58.8892C85.0157 58.0574 84.2155 57.6702 83.3857 57.5919C82.5808 57.5161 81.7923 57.7341 81.1289 58.0231C80.4607 58.3142 79.8763 58.6963 79.4636 59.0001C79.3575 59.0783 79.2618 59.1519 79.178 59.2184L65.2742 48.2247C65.0142 48.0192 64.6369 48.0633 64.4314 48.3232Z" fill="#2A1410"/>
</svg>
