<svg width="99" height="68" viewBox="0 0 99 68" fill="none" xmlns="http://www.w3.org/2000/svg">
<path d="M72.9805 8.57205C72.8295 7.34193 73.7042 6.22229 74.9344 6.07125L92.9087 3.86427C94.1389 3.71323 95.2585 4.58799 95.4096 5.81811L98.7263 32.8312C98.8774 34.0613 98.0026 35.181 96.7725 35.332L78.7981 37.539C77.568 37.69 76.4483 36.8153 76.2973 35.5851L72.9805 8.57205Z" fill="#C8D357"/>
<path d="M76.9653 11.3766C76.8746 10.6385 77.3995 9.9667 78.1376 9.87608L90.9401 8.30412C91.6782 8.2135 92.35 8.73835 92.4406 9.47642L92.8453 12.772C92.9359 13.5101 92.411 14.1819 91.673 14.2725L78.8704 15.8445C78.1323 15.9351 77.4605 15.4102 77.3699 14.6722L76.9653 11.3766Z" fill="#FAF9F7"/>
<path d="M82.3409 18.8097C82.5071 20.1628 81.5448 21.3944 80.1917 21.5606C78.8386 21.7267 77.6069 20.7645 77.4408 19.4114C77.2747 18.0582 78.2369 16.8266 79.59 16.6605C80.9432 16.4943 82.1748 17.4566 82.3409 18.8097Z" fill="#FAF9F7"/>
<path d="M88.1319 18.0986C88.2981 19.4518 87.3358 20.6834 85.9827 20.8495C84.6296 21.0157 83.398 20.0534 83.2318 18.7003C83.0657 17.3472 84.0279 16.1156 85.3811 15.9494C86.7342 15.7833 87.9658 16.7455 88.1319 18.0986Z" fill="#FAF9F7"/>
<path d="M93.923 17.3876C94.0891 18.7407 93.1269 19.9723 91.7738 20.1385C90.4206 20.3046 89.189 19.3424 89.0229 17.9893C88.8567 16.6361 89.819 15.4045 91.1721 15.2384C92.5252 15.0722 93.7568 16.0345 93.923 17.3876Z" fill="#FAF9F7"/>
<path d="M83.052 24.6007C83.2181 25.9539 82.2559 27.1855 80.9027 27.3516C79.5496 27.5178 78.318 26.5555 78.1518 25.2024C77.9857 23.8493 78.9479 22.6177 80.3011 22.4515C81.6542 22.2854 82.8858 23.2476 83.052 24.6007Z" fill="#FAF9F7"/>
<path d="M88.843 23.8897C89.0091 25.2428 88.0469 26.4744 86.6938 26.6406C85.3406 26.8067 84.109 25.8445 83.9429 24.4913C83.7767 23.1382 84.739 21.9066 86.0921 21.7405C87.4452 21.5743 88.6769 22.5366 88.843 23.8897Z" fill="#FAF9F7"/>
<path d="M94.634 23.1786C94.8002 24.5318 93.8379 25.7634 92.4848 25.9295C91.1317 26.0957 89.9001 25.1334 89.7339 23.7803C89.5678 22.4272 90.53 21.1956 91.8832 21.0294C93.2363 20.8633 94.4679 21.8255 94.634 23.1786Z" fill="#FAF9F7"/>
<path d="M83.763 30.3918C83.9292 31.7449 82.9669 32.9765 81.6138 33.1427C80.2607 33.3088 79.029 32.3466 78.8629 30.9934C78.6968 29.6403 79.659 28.4087 81.0121 28.2426C82.3653 28.0764 83.5969 29.0386 83.763 30.3918Z" fill="#FAF9F7"/>
<path d="M89.554 29.6807C89.7202 31.0339 88.7579 32.2655 87.4048 32.4316C86.0517 32.5978 84.8201 31.6355 84.6539 30.2824C84.4878 28.9293 85.45 27.6976 86.8032 27.5315C88.1563 27.3654 89.3879 28.3276 89.554 29.6807Z" fill="#FAF9F7"/>
<path d="M95.3451 28.9697C95.5112 30.3228 94.549 31.5544 93.1959 31.7206C91.8427 31.8867 90.6111 30.9245 90.445 29.5713C90.2788 28.2182 91.2411 26.9866 92.5942 26.8205C93.9473 26.6543 95.1789 27.6165 95.3451 28.9697Z" fill="#FAF9F7"/>
<path d="M80.989 19.8054C81.7312 21.4762 78.6373 22.8383 77.5441 23.2597C78.7343 22.843 82.4087 21.7052 82.7842 23.3949C83.2002 25.2667 78.2961 26.5367 78.2961 26.5367C78.2961 26.5367 83.2788 25.7277 83.9062 26.7611C83.9062 26.7611 84.3551 27.2099 83.9062 27.8831C83.9062 27.8831 83.9062 28.6542 77.6229 31.191L74.7271 19.8041C79.245 18.8805 80.6012 18.9324 80.989 19.8054Z" fill="#C8D357"/>
<path fill-rule="evenodd" clip-rule="evenodd" d="M26.2379 40.3107C26.5661 40.3564 26.7951 40.6595 26.7494 40.9877L24.2939 58.6185L23.7825 58.6282L23.7758 58.6284L23.7464 58.6295C23.7194 58.6306 23.6779 58.6327 23.6242 58.6363C23.5165 58.6437 23.3605 58.6573 23.1734 58.6824C22.7956 58.7331 22.3076 58.8283 21.8379 59.0035C21.3633 59.1806 20.9507 59.4233 20.6766 59.743C20.5023 59.9462 20.3714 60.1941 20.3234 60.5121C20.5277 60.5204 20.7821 60.5295 21.0782 60.5379C21.9056 60.5611 23.0573 60.5781 24.3536 60.5528C26.8251 60.5047 29.7679 60.3036 31.995 59.7235L34.9692 40.8111C35.0207 40.4838 35.3278 40.2602 35.6552 40.3116C35.9825 40.3631 36.2061 40.6702 36.1547 40.9976L33.1202 60.2925C33.0841 60.5223 32.9184 60.7105 32.695 60.7754C30.2696 61.4802 26.9998 61.7015 24.377 61.7526C23.0573 61.7783 21.886 61.7611 21.0445 61.7374C20.6235 61.7256 20.2847 61.7121 20.0505 61.7016C19.9334 61.6963 19.8424 61.6918 19.7804 61.6885L19.7095 61.6847L19.691 61.6837L19.6848 61.6833C19.6846 61.6833 19.6842 61.6833 19.7194 61.0843L19.6848 61.6833C19.3915 61.6661 19.1532 61.439 19.1226 61.1468C19.0277 60.2393 19.2932 59.5128 19.7656 58.9619C20.2219 58.4299 20.8415 58.0945 21.4185 57.8792C22.0004 57.6621 22.5834 57.5508 23.0138 57.4931C23.0954 57.4821 23.1721 57.473 23.2429 57.4655L25.5608 40.8222C25.6066 40.494 25.9097 40.265 26.2379 40.3107Z" fill="#2A1410"/>
<path fill-rule="evenodd" clip-rule="evenodd" d="M44.164 40.3146C43.8358 40.3603 43.6068 40.6634 43.6525 40.9917L46.108 58.6225L46.6194 58.6321L46.6261 58.6323L46.6554 58.6334C46.6824 58.6345 46.7239 58.6366 46.7777 58.6402C46.8854 58.6476 47.0413 58.6612 47.2285 58.6863C47.6062 58.737 48.0943 58.8322 48.5639 59.0074C49.0385 59.1845 49.4511 59.4272 49.7253 59.7469C49.8995 59.9501 50.0305 60.198 50.0785 60.516C49.8741 60.5243 49.6198 60.5334 49.3237 60.5418C48.4962 60.565 47.3446 60.582 46.0483 60.5567C43.5767 60.5086 40.634 60.3075 38.4069 59.7274L35.4326 40.8151C35.3812 40.4877 35.0741 40.2641 34.7467 40.3156C34.4194 40.367 34.1957 40.6741 34.2472 41.0015L37.2816 60.2964C37.3178 60.5262 37.4835 60.7144 37.7069 60.7793C40.1323 61.4841 43.4021 61.7054 46.0249 61.7565C47.3446 61.7822 48.5159 61.765 49.3574 61.7413C49.7783 61.7295 50.1172 61.716 50.3514 61.7055C50.4685 61.7002 50.5594 61.6957 50.6214 61.6924L50.6923 61.6886L50.7108 61.6876L50.7171 61.6872C50.7172 61.6872 50.7177 61.6872 50.6825 61.0882L50.7171 61.6872C51.0104 61.67 51.2487 61.4429 51.2792 61.1507C51.3742 60.2432 51.1087 59.5167 50.6362 58.9658C50.18 58.4338 49.5604 58.0984 48.9834 57.8831C48.4014 57.666 47.8184 57.5547 47.388 57.497C47.3065 57.486 47.2298 57.4769 47.1589 57.4694L44.841 40.8261C44.7953 40.4979 44.4922 40.2689 44.164 40.3146Z" fill="#2A1410"/>
<path d="M7.06603 7.36223C-12.0146 19.6904 20.5513 55.5907 38.5144 53.7027C56.4774 51.8147 79.4546 4.91388 55.2595 2.29689C42.3034 0.89553 34.6742 17.167 32.4836 17.3971C30.2931 17.6273 19.1158 -0.423267 7.06603 7.36223Z" fill="#E8D7EA"/>
<path fill-rule="evenodd" clip-rule="evenodd" d="M38.0786 32.2139C37.9122 32.5005 38.0096 32.8677 38.2962 33.0341C40.0649 34.0611 41.8326 34.6545 43.4291 34.5472C45.0708 34.4369 46.4566 33.5892 47.3996 31.9131C47.5621 31.6243 47.4597 31.2584 47.1709 31.0959C46.8821 30.9335 46.5162 31.0359 46.3537 31.3247C45.5971 32.6697 44.5622 33.2683 43.3486 33.3499C42.0899 33.4345 40.5678 32.9655 38.8988 31.9963C38.6122 31.8299 38.245 31.9274 38.0786 32.2139Z" fill="#2A1410"/>
<path d="M41.1642 25.221C41.4428 26.261 41.1067 27.2546 40.4134 27.4404C39.7201 27.6262 38.9321 26.9337 38.6535 25.8938C38.3748 24.8538 38.711 23.8601 39.4043 23.6744C40.0976 23.4886 40.8855 24.1811 41.1642 25.221Z" fill="#2A1410"/>
<path d="M45.8747 23.4815C45.9873 24.5523 45.4998 25.4811 44.786 25.5561C44.0722 25.6312 43.4023 24.824 43.2897 23.7532C43.1772 22.6825 43.6646 21.7536 44.3784 21.6786C45.0923 21.6036 45.7622 22.4108 45.8747 23.4815Z" fill="#2A1410"/>
<path fill-rule="evenodd" clip-rule="evenodd" d="M70.6512 21.2029C65.0804 22.4606 58.3648 24.3634 53.3632 25.9311C53.047 26.0302 52.7103 25.8542 52.6112 25.538C52.5121 25.2218 52.6881 24.8851 53.0043 24.786C58.0261 23.212 64.7748 21.2994 70.3869 20.0324C73.1896 19.3996 75.7287 18.9232 77.6336 18.7337C78.5816 18.6394 79.4045 18.6127 80.0354 18.6843C80.3498 18.72 80.6487 18.7835 80.9015 18.8949C81.1528 19.0056 81.4191 19.1916 81.5583 19.5048C81.8956 20.2641 81.6769 20.9692 81.2768 21.516C81.194 21.6291 81.1021 21.7379 81.0032 21.8425C81.2933 21.8347 81.5771 21.849 81.8416 21.8948C82.5064 22.0098 83.2035 22.3643 83.3909 23.2078C83.5618 23.9768 83.1589 24.6093 82.6933 25.0529C82.493 25.2437 82.2617 25.4197 82.0151 25.581C82.3097 25.5872 82.5959 25.6047 82.8604 25.6377C83.1636 25.6757 83.4639 25.7371 83.7246 25.839C83.96 25.9311 84.2273 26.0813 84.4055 26.3393C84.4293 26.3677 84.4585 26.4054 84.4896 26.452C84.5512 26.5444 84.6238 26.6778 84.6724 26.8478C84.7712 27.1935 84.7519 27.6286 84.4724 28.087C84.4408 28.1626 84.3968 28.2349 84.3431 28.3052C84.2347 28.4471 84.0638 28.6104 83.7948 28.8078C83.2564 29.2029 82.2363 29.7983 80.2726 30.6743C76.3383 32.4291 68.5113 35.355 52.9085 40.0696C52.5913 40.1654 52.2564 39.986 52.1606 39.6688C52.0647 39.3515 52.2442 39.0167 52.5614 38.9209C68.1509 34.2104 75.9199 31.3018 79.7838 29.5783C81.719 28.7151 82.6485 28.1605 83.0849 27.8403C83.2077 27.7502 83.2845 27.6836 83.3305 27.6395L83.428 27.4933C83.5537 27.3048 83.5269 27.2065 83.5186 27.1775C83.5111 27.1513 83.4996 27.1303 83.4911 27.1176C83.4902 27.1163 83.4895 27.1152 83.4888 27.1142L83.4519 27.0773L83.421 27.0265C83.4133 27.02 83.3787 26.9922 83.2874 26.9566C83.1555 26.9049 82.9636 26.86 82.7114 26.8285C82.209 26.7656 81.5691 26.7677 80.9199 26.8035C80.2764 26.839 79.6486 26.9062 79.18 26.9648C78.9462 26.9941 78.7532 27.0211 78.6192 27.0407C78.5523 27.0505 78.5001 27.0584 78.465 27.0638L78.4254 27.07L78.4158 27.0716L78.4136 27.0719L78.3171 26.4797C78.1667 25.8989 78.1666 25.8989 78.1665 25.8989C78.1666 25.8989 78.1665 25.8989 78.1665 25.8989L78.1685 25.8984L78.1772 25.8961L78.2143 25.8861C78.2476 25.877 78.2973 25.8633 78.361 25.8449C78.4884 25.8082 78.6714 25.7534 78.8903 25.6818C79.3299 25.5379 79.905 25.3293 80.462 25.0677C81.0277 24.802 81.5335 24.5004 81.8655 24.1841C82.2025 23.8631 82.2566 23.635 82.2195 23.4681C82.1825 23.3018 82.0661 23.1514 81.6369 23.0772C81.1971 23.001 80.5946 23.0481 79.9424 23.1704C79.3029 23.2903 78.6697 23.4717 78.1921 23.6252C78.0313 23.6769 77.8892 23.725 77.7719 23.766C77.709 23.7903 77.6525 23.8115 77.6033 23.8296C77.5364 23.8543 77.483 23.8732 77.4457 23.8863L77.4022 23.9013L77.39 23.9054L77.3864 23.9066L77.3853 23.907C77.3851 23.9071 77.3846 23.9072 77.1951 23.338C76.9764 22.7792 76.9766 22.7792 76.9767 22.7791L76.9782 22.7785L76.9818 22.7771L76.9946 22.7722L77.0414 22.7544C77.0818 22.7392 77.1401 22.7175 77.2139 22.6908C77.2568 22.6753 77.3049 22.6582 77.3578 22.6396C77.4529 22.6029 77.5637 22.5587 77.6861 22.5076C78.0984 22.3354 78.63 22.0891 79.1286 21.7875C79.6369 21.48 80.0622 21.1437 80.3084 20.8074C80.53 20.5045 80.5701 20.2632 80.4744 20.0224C80.4638 20.0156 80.4459 20.0054 80.4177 19.993C80.3194 19.9497 80.1533 19.9054 79.9 19.8767C79.3954 19.8193 78.672 19.8363 77.7524 19.9278C75.9218 20.1099 73.4399 20.5733 70.6512 21.2029ZM77.1951 23.338L76.9767 22.7791C76.6737 22.8977 76.5202 23.2362 76.6309 23.5421C76.7416 23.8481 77.0766 24.0098 77.3853 23.907L77.1951 23.338Z" fill="#2A1410"/>
</svg>
